<svg width="246" height="228" viewBox="0 0 246 228" fill="none" xmlns="http://www.w3.org/2000/svg">
<path d="M246 161C246 182.263 220.208 206 195.756 206C171.304 206 151 190.763 151 169.5C151 148.237 173.792 125 198.244 125C222.696 125 246 139.737 246 161Z" fill="#D9D9D9"/>
<path d="M94 183C94 204.263 68.2083 228 43.7563 228C19.3044 228 0 212.763 0 191.5C0 170.237 21.7917 147 46.2437 147C70.6956 147 94 161.737 94 183Z" fill="#D9D9D9"/>
<path d="M65 39.7871L94 33.7871V182L65 184.787V39.7871Z" fill="#D9D9D9"/>
<path d="M217 5.78711L246 0V161.787H217V5.78711Z" fill="#D9D9D9"/>
<path d="M217.5 36L94 64V33.7967L217.5 5.67188V36Z" fill="#D9D9D9"/>
</svg>
