<svg width="12" height="12" viewBox="0 0 12 12" fill="none" xmlns="http://www.w3.org/2000/svg">
<path d="M0.15 0.777778C0.15 0.452168 0.467057 0.15 0.909091 0.15H4.54545C4.98749 0.15 5.30455 0.452168 5.30455 0.777778V6.22222C5.30455 6.54785 4.98749 6.85 4.54545 6.85H0.909091C0.467054 6.85 0.15 6.54785 0.15 6.22222V0.777778Z" fill="black" stroke="black" stroke-width="0.3" stroke-linecap="round" stroke-linejoin="round"/>
<path d="M6.69545 5.77778C6.69545 5.45217 7.01251 5.15 7.45455 5.15H11.0909C11.5329 5.15 11.85 5.45217 11.85 5.77778V11.2222C11.85 11.5478 11.5329 11.85 11.0909 11.85H7.45455C7.01251 11.85 6.69545 11.5478 6.69545 11.2222V5.77778Z" fill="black" stroke="black" stroke-width="0.3" stroke-linecap="round" stroke-linejoin="round"/>
<path d="M6.69545 1C6.69545 0.493578 7.00983 0.15 7.32468 0.15H11.2208C11.5356 0.15 11.85 0.493578 11.85 1V3C11.85 3.50642 11.5356 3.85 11.2208 3.85H7.32468C7.00983 3.85 6.69545 3.50642 6.69545 3V1Z" fill="black" stroke="black" stroke-width="0.3" stroke-linecap="round" stroke-linejoin="round"/>
<path d="M0.15 9C0.15 8.49358 0.464379 8.15 0.779221 8.15H4.67532C4.99017 8.15 5.30455 8.49358 5.30455 9V11C5.30455 11.5064 4.99017 11.85 4.67532 11.85H0.779221C0.464379 11.85 0.15 11.5064 0.15 11V9Z" fill="black" stroke="black" stroke-width="0.3" stroke-linecap="round" stroke-linejoin="round"/>
</svg>
